<svg id="Layer_1" data-name="Layer 1" xmlns="http://www.w3.org/2000/svg" viewBox="0 0 916.5 630.65"><defs><style>.cls-1{font-size:12px;font-family:Cascaca-Bold, Cascaca;}.cls-1,.cls-8{font-weight:700;}.cls-2{letter-spacing:-0.05em;}.cls-3{letter-spacing:-0.01em;}.cls-4{letter-spacing:-0.01em;}.cls-5{fill:none;stroke:#29abe2;stroke-miterlimit:10;}.cls-6,.cls-7{fill:#29abe2;}.cls-7{font-size:20px;font-family:PingFang-SC-Bold, PingFang SC;}.cls-9{font-family:PingFang-SC-Light, PingFang SC;}</style></defs><title>page_img</title><text class="cls-1" transform="translate(5.11 118.74)"><tspan xml:space="preserve">   ______     ______   __  __     _____     ______     __   __     ______</tspan><tspan x="0" y="14.4" xml:space="preserve">  /\  ___\   /\__  _\ /\ \/\ \   /\  __-.  /\  ___\   /\ &quot;-.\ \   /\__  _\</tspan><tspan x="0" y="28.8" xml:space="preserve">  \ \___  \  \/_/\ \/ \ \ \_\ \  \ \ \/\ \ \ \  __\   \ \ \-.  \  \/_/\ \/</tspan><tspan x="0" y="43.2" xml:space="preserve">   \/\_____\    \ \_\  \ \_____\  \ \____-  \ \_____\  \ \_\\&quot;\_\    \ \_\</tspan><tspan x="0" y="57.6" xml:space="preserve">    \/_____/     \/_/   \/_____/   \/____/   \/_____/   \/_/ \/_/     \/_/</tspan><tspan x="0" y="86.4">您选择了修改以下的课程作业/实验：</tspan><tspan x="0" y="100.8">+-----------------+--------------------------------------+---------------------+---------------------+</tspan><tspan x="0" y="115.2" xml:space="preserve">| 作业/实验ID     | 作业/实验简介                        | 创建时间            | 截止时间            |</tspan><tspan x="0" y="129.6">+-----------------+--------------------------------------+---------------------+---------------------+</tspan><tspan x="0" y="144" xml:space="preserve">|               5 | 实验4 JDBC系统的编写和使用           | 2020-07-18 16:57:12 | 2020-07-25 16:57:12 |</tspan><tspan x="0" y="158.4">+-----------------+--------------------------------------+---------------------+---------------------+</tspan><tspan x="0" y="172.8">本课程作业/实验的附件包括：</tspan><tspan x="0" y="187.2">+----------+---------------------------------+-----------------------------------------------------------------------+</tspan><tspan x="0" y="201.6" xml:space="preserve">| 附件ID   | 附件名称                        | 附件URL                                                               |</tspan><tspan x="0" y="216">+----------+---------------------------------+-----------------------------------------------------------------------+</tspan><tspan x="0" y="230.4" xml:space="preserve">|        2 | 数据库系统实验报告              | https://ra</tspan><tspan class="cls-2" x="382.22" y="230.4">w</tspan><tspan x="388.61" y="230.4">.githubuse</tspan><tspan class="cls-3" x="458.92" y="230.4">r</tspan><tspan x="465.78" y="230.4">con</tspan><tspan class="cls-4" x="486.87" y="230.4">t</tspan><tspan x="493.8" y="230.4">ent.com/dendenxu/miniSQL/mas</tspan><tspan class="cls-4" x="690.68" y="230.4">t</tspan><tspan x="697.61" y="230.4">er/xz.</tspan><tspan class="cls-4" x="739.8" y="230.4">t</tspan><tspan x="746.73" y="230.4" xml:space="preserve">ex      |</tspan><tspan x="0" y="244.8" xml:space="preserve">|        4 | JDBC接口调用参考与举例          | https://ra</tspan><tspan class="cls-2" x="382.22" y="244.8">w</tspan><tspan x="388.61" y="244.8">.githubuse</tspan><tspan class="cls-3" x="458.92" y="244.8">r</tspan><tspan x="465.78" y="244.8">con</tspan><tspan class="cls-4" x="486.87" y="244.8">t</tspan><tspan x="493.8" y="244.8">ent.com/dendenxu/DeepOthello/mas</tspan><tspan class="cls-4" x="718.8" y="244.8">t</tspan><tspan x="725.74" y="244.8">er/MCTS.py |</tspan><tspan x="0" y="259.2">+----------+---------------------------------+-----------------------------------------------------------------------+</tspan><tspan x="0" y="273.6">您在本课程作业/实验创建的课程作业/实验提交如下所示</tspan><tspan x="0" y="288">+----------+--------------------+---------------------+---------------------+</tspan><tspan x="0" y="302.4" xml:space="preserve">| 提交ID   | 提交内容           | 创建时间            | 最近修改时间        |</tspan><tspan x="0" y="316.8">+----------+--------------------+---------------------+---------------------+</tspan><tspan x="0" y="331.2" xml:space="preserve">|        8 | 内容呢共欸容       | 2020-07-20 15:54:01 | 2020-07-20 15:54:01 |</tspan><tspan x="0" y="345.6">+----------+--------------------+---------------------+---------------------+</tspan><tspan x="0" y="360">您可以进行的操作有：</tspan><tspan x="0" y="374.4">1. 发布新的课程作业/实验提交</tspan><tspan x="0" y="388.8">2. 删除已发布的课程作业/实验提交</tspan><tspan x="0" y="403.2">3. 修改已发布的课程作业/实验提交</tspan><tspan x="0" y="417.6">4. 查看已发布的课程作业/实验提交</tspan><tspan x="0" y="432">0. 返回上一级</tspan><tspan x="0" y="446.4">请输入您想要进行的操作：</tspan></text><path class="cls-5" d="M635.21,157.41c14.59-40.78,102.14-15.08,115.7-56.91" transform="translate(-89.5 -66.36)"/><path class="cls-6" d="M635.82,155.72l-3-3-.11.1.85,6.27c-.06,2.09-.11,4.19-.17,6.28l2.79-5.63,3.68-5.14,0-.14Z" transform="translate(-89.5 -66.36)"/><path class="cls-6" d="M750.36,102.21l-4,1.37-.06-.14,3.55-5.23,2.64-5.71v6.29l1,6.24-.09.1Z" transform="translate(-89.5 -66.36)"/><text class="cls-7" transform="translate(581.5 17.2)"><tspan class="cls-8">横幅</tspan><tspan class="cls-9" x="40" y="0">：表明使用者身份</tspan></text><path class="cls-5" d="M373.93,667.25c-35.65,43.21-163.43,37.32-178.67-9.43" transform="translate(-89.5 -66.36)"/><path class="cls-6" d="M372.77,668.63l1.68,3.87.14-.06,1.48-6.14,2.43-5.8-4.64,4.24-5.3,3.46,0,.13Z" transform="translate(-89.5 -66.36)"/><path class="cls-6" d="M195.83,659.53l-3.08,2.88-.1-.1,1.09-6.23q0-3.14.07-6.29,1.27,2.88,2.57,5.74l3.48,5.27,0,.14Z" transform="translate(-89.5 -66.36)"/><text class="cls-7" transform="translate(300.5 598.2)"><tspan class="cls-8">操作栏</tspan><tspan class="cls-9" x="60" y="0">：列举可进行的操作，</tspan><tspan class="cls-9"><tspan x="0" y="24">最后一项为返回上一级</tspan></tspan></text><path class="cls-5" d="M850.65,201.14c-17.6,25.91-105.52-7.94-153.82,49.21" transform="translate(-89.5 -66.36)"/><path class="cls-6" d="M849.6,202.65l2.46,3.43.12-.08.16-6.32c.39-2.06.77-4.12,1.16-6.18l-3.65,5.12-4.45,4.49v.14Z" transform="translate(-89.5 -66.36)"/><path class="cls-6" d="M698,249l4.18.53v.14l-5.48,3.15-4.88,4,2.76-5.64,1.84-6.06.12,0Z" transform="translate(-89.5 -66.36)"/><text class="cls-7" transform="translate(611.5 112.2)"><tspan class="cls-8">表格</tspan><tspan class="cls-9" x="40" y="0">：一些供参考的列举信息</tspan></text><rect class="cls-5" x="1" y="107.14" width="543" height="80"/><rect class="cls-5" x="1" y="193.14" width="839" height="273"/><rect class="cls-5" x="0.5" y="465.64" width="207" height="105"/></svg>